<?xml version="1.0"?>
<svg width="961.5" height="961.5" xmlns="http://www.w3.org/2000/svg" xmlns:svg="http://www.w3.org/2000/svg">
 <g>
  <title>Layer 1</title>
  <g id="svg_1">
   <path fill="#bfbfbf" id="svg_2" d="m315.600006,850.349976c0,-33.099976 -26.898987,-60 -60,-60l-105.600006,0c-16.5,0 -30,-13.5 -30,-30l0,-559.200012c0,-16.5 13.5,-30 30,-30l107.5,0c33.100006,0 60,-26.900009 60,-60c0,-33.100006 -26.899994,-60.000004 -60,-60.000004l-107.5,0c-82.699997,0 -150,67.300007 -150,150.000004l0,559.200012c0,82.700012 67.300003,150 150,150l105.5,0c33.200012,0 60.100006,-26.899963 60.100006,-60z"/>
   <path fill="#bfbfbf" id="svg_3" d="m706,910.349976l105.5,0c82.700012,0 150,-67.299988 150,-150l0,-559.200012c0,-82.699997 -67.299988,-150.000004 -150,-150.000004l-107.5,0c-33.101013,0 -60,26.899998 -60,60.000004c0,33.099991 26.898987,60 60,60l107.5,0c16.5,0 30,13.5 30,30l0,559.200012c0,16.5 -13.5,30 -30,30l-105.5,0c-33.101013,0 -60,26.900024 -60,60s26.898987,60 60,60z"/>
   <path fill="#bfbfbf" id="svg_4" d="m674.898987,686.150024c17.5,-27.5 26.301025,-57.099976 26.301025,-88.700012c0,-34.799988 -7.301025,-64.099976 -22,-87.698975c-14.700012,-23.700012 -34.900024,-42.300995 -60.900024,-56c-25.900024,-13.601013 -65.900024,-26.899994 -120,-39.601013c-54.100006,-12.799988 -88.200012,-25 -102.200012,-36.799988c-11,-9.300018 -16.5,-20.399994 -16.5,-33.399994c0,-14.300018 5.900024,-25.700012 17.700012,-34.200012c18.299988,-13.299988 43.600006,-19.899994 75.899994,-19.899994c31.300018,0 54.800018,6.199982 70.399017,18.600006c9.601013,7.599976 17.101013,18.199982 22.601013,31.799988c7,17.399994 24.099976,28.600006 42.799988,27.799988l26.5,-1.199982c29.700012,-1.300018 49.5,-31.100006 39.398987,-59.100006c-9.099976,-25 -23.898987,-46.5 -44.599976,-64.5c-34.900024,-30.300003 -87,-45.5 -156.100006,-45.5c-42.301025,0 -78.5,6.399994 -108.400024,19.199997c-29.899994,12.800003 -52.799988,31.400009 -68.799988,55.800003c-15.900024,24.399994 -23.900024,50.700012 -23.900024,78.699982c0,43.600006 16.900024,80.5 50.700012,110.800018c24,21.5 65.899994,39.699005 125.5,54.499969c46.299988,11.5 75.999969,19.5 88.999969,24c19,6.800049 32.400024,14.699036 40,23.899048c7.600037,9.100952 11.5,20.200012 11.5,33.200012c0,20.299988 -9.099976,38 -27.199951,53.199951c-18.200012,15.200012 -45.100037,22.700012 -81.000031,22.700012c-33.799988,0 -60.699982,-8.5 -80.599976,-25.5c-13.400024,-11.5 -23.800018,-27.399963 -31.200012,-47.700012c-6.799988,-18.899963 -25.600006,-30.699951 -45.600006,-28.799988l-22.5,2.199036c-27.899994,2.699951 -46,30.399963 -37.699982,57.100952c11.399994,36.5 30.099976,66 56,88.300049c37.299988,32.199951 90.799988,48.299988 160.398987,48.299988c47.800995,0 87.800995,-6.700012 119.800995,-20.100037c32.401001,-13.398987 57.200012,-33.898987 74.700012,-61.398987z"/>
  </g>
  <g id="svg_5"/>
  <g id="svg_6"/>
  <g id="svg_7"/>
  <g id="svg_8"/>
  <g id="svg_9"/>
  <g id="svg_10"/>
  <g id="svg_11"/>
  <g id="svg_12"/>
  <g id="svg_13"/>
  <g id="svg_14"/>
  <g id="svg_15"/>
  <g id="svg_16"/>
  <g id="svg_17"/>
  <g id="svg_18"/>
  <g id="svg_19"/>
 </g>
</svg>